<svg width="201" height="14" viewBox="0 0 201 14" fill="none" xmlns="http://www.w3.org/2000/svg">
<path d="M94.9897 4.08195H26.3229C18.9453 4.08195 11.5845 3.89546 4.24051 3.52247L0.52002 3.32946L4.24051 3.13924C11.577 2.76626 18.9378 2.57977 26.3229 2.57977H94.9897V4.08195ZM196.8 3.13364C189.463 2.76066 182.102 2.57417 174.717 2.57417H106.05V4.08195H174.717C182.095 4.08195 189.456 3.89546 196.8 3.52247L200.52 3.32946L196.8 3.13364ZM100.52 0.22998C99.9114 0.22998 99.3165 0.410449 98.8105 0.748565C98.3045 1.08668 97.9101 1.56726 97.6772 2.12952C97.4443 2.69179 97.3833 3.31049 97.5021 3.90739C97.6208 4.50429 97.9139 5.05257 98.3442 5.48291C98.7745 5.91325 99.3228 6.20631 99.9197 6.32505C100.517 6.44378 101.135 6.38284 101.698 6.14994C102.26 5.91704 102.74 5.52265 103.079 5.01662C103.417 4.5106 103.597 3.91567 103.597 3.30708C103.597 2.49098 103.273 1.70831 102.696 1.13124C102.119 0.554175 101.336 0.22998 100.52 0.22998ZM99.1997 8.21924C98.917 8.50184 98.7325 8.86762 98.6731 9.26286C98.6137 9.65809 98.6825 10.062 98.8696 10.4152L100.52 13.5286L102.17 10.4152C102.358 10.062 102.426 9.65809 102.367 9.26286C102.308 8.86762 102.123 8.50184 101.84 8.21924C101.49 7.87008 101.015 7.67405 100.52 7.67405C100.025 7.67405 99.5504 7.87008 99.1997 8.21924ZM94.5533 5.52538C94.1533 5.52559 93.764 5.6539 93.4423 5.89151C93.1206 6.12913 92.8835 6.46354 92.7657 6.84574L91.7335 10.2026L95.0904 9.17034C95.4725 9.05258 95.807 8.81547 96.0446 8.49379C96.2822 8.1721 96.4105 7.78276 96.4107 7.38283C96.4078 6.89111 96.2111 6.42037 95.8634 6.07266C95.5157 5.72496 95.045 5.52832 94.5533 5.52538ZM104.624 7.39402C104.624 7.79395 104.752 8.18329 104.99 8.50498C105.227 8.82666 105.562 9.06377 105.944 9.18154L109.301 10.2138L108.269 6.85693C108.151 6.47473 107.914 6.14031 107.592 5.9027C107.27 5.66509 106.881 5.53677 106.481 5.53657C105.989 5.53804 105.516 5.73403 105.167 6.08189C104.819 6.42975 104.621 6.90133 104.618 7.39402H104.624Z" fill="#F29422"/>
</svg>
