<svg width="512" height="512" viewBox="0 0 512 512" fill="none" xmlns="http://www.w3.org/2000/svg">
<path d="M57.4902 47.74L425.92 416.17C432.911 423.161 436.838 432.643 436.838 442.53C436.838 452.417 432.911 461.899 425.92 468.89C418.928 475.878 409.446 479.804 399.56 479.804C389.674 479.804 380.193 475.878 373.2 468.89L283.2 377.34C277.31 371.359 274.006 363.304 274 354.91V349.38C274.001 345.142 273.16 340.945 271.526 337.035C269.891 333.124 267.497 329.577 264.48 326.6L252.86 315.87C248.916 312.23 244.119 309.641 238.911 308.341C233.704 307.041 228.253 307.071 223.06 308.43C214.872 310.567 206.267 310.526 198.1 308.31C189.932 306.095 182.486 301.782 176.5 295.8L91.0702 210.36C40.3902 159.68 21.7402 83.15 57.4902 47.74Z" stroke="#BF5B04" stroke-width="32" stroke-linejoin="round"/>
<path d="M400 32L322.75 109.25C316.806 115.193 312.09 122.249 308.873 130.015C305.656 137.781 304 146.104 304 154.51V169.37C304 171.472 303.586 173.554 302.782 175.497C301.977 177.439 300.797 179.204 299.31 180.69L288 192" stroke="#BF5B04" stroke-width="32" stroke-linecap="round" stroke-linejoin="round"/>
<path d="M320 224L331.31 212.69C332.796 211.203 334.561 210.023 336.503 209.218C338.446 208.414 340.528 208 342.63 208H357.49C365.896 208 374.219 206.344 381.985 203.127C389.751 199.91 396.807 195.194 402.75 189.25L480 112" stroke="#BF5B04" stroke-width="32" stroke-linecap="round" stroke-linejoin="round"/>
<path d="M440 72L360 152" stroke="#BF5B04" stroke-width="32" stroke-linecap="round" stroke-linejoin="round"/>
<path d="M200 368L100.28 468.28C92.7786 475.779 82.6063 479.991 71.9998 479.991C61.3932 479.991 51.2209 475.779 43.7198 468.28C36.2209 460.779 32.0083 450.607 32.0083 440C32.0083 429.393 36.2209 419.221 43.7198 411.72L128 328" stroke="#BF5B04" stroke-width="32" stroke-linecap="round" stroke-linejoin="round"/>
</svg>
